<svg width="29" height="29" viewBox="0 0 29 29" fill="none" xmlns="http://www.w3.org/2000/svg">
<path d="M19.3333 2.41663C19.6293 2.41667 19.9149 2.52532 20.1361 2.72199C20.3573 2.91866 20.4986 3.18966 20.5332 3.48358L20.5417 3.62496V4.83329H21.75C22.6746 4.83324 23.5643 5.18652 24.2371 5.82084C24.9098 6.45517 25.3147 7.32259 25.369 8.24563L25.375 8.45829V22.9583C25.3751 23.8829 25.0218 24.7726 24.3874 25.4454C23.7531 26.1181 22.8857 26.523 21.9627 26.5772L21.75 26.5833H7.25C6.32537 26.5833 5.43567 26.2301 4.76293 25.5957C4.0902 24.9614 3.68529 24.094 3.63104 23.171L3.625 22.9583V8.45829C3.62495 7.53366 3.97823 6.64396 4.61255 5.97123C5.24688 5.29849 6.1143 4.89358 7.03733 4.83933L7.25 4.83329H8.45833V3.62496C8.45867 3.31698 8.5766 3.02075 8.78802 2.79681C8.99945 2.57286 9.2884 2.43809 9.59585 2.42004C9.9033 2.40199 10.206 2.50202 10.4422 2.6997C10.6784 2.89737 10.8302 3.17776 10.8665 3.48358L10.875 3.62496V4.83329H18.125V3.62496C18.125 3.30449 18.2523 2.99714 18.4789 2.77054C18.7055 2.54393 19.0129 2.41663 19.3333 2.41663ZM22.9583 10.875H6.04167V22.5052C6.04167 23.357 6.50808 24.0591 7.10862 24.1557L7.25 24.1666H21.75C22.3699 24.1666 22.881 23.5262 22.9499 22.6985L22.9583 22.5052V10.875Z" fill="#FF6B5B"/>
<path d="M14.5 14.5C14.796 14.5 15.0817 14.6087 15.3028 14.8054C15.524 15.002 15.6653 15.273 15.6999 15.567L15.7084 15.7083V19.3333C15.708 19.6413 15.5901 19.9375 15.3787 20.1615C15.1673 20.3854 14.8783 20.5202 14.5709 20.5382C14.2634 20.5563 13.9607 20.4563 13.7245 20.2586C13.4883 20.0609 13.3365 19.7805 13.3002 19.4747L13.2917 19.3333V16.9167C12.9837 16.9163 12.6875 16.7984 12.4636 16.587C12.2396 16.3756 12.1048 16.0866 12.0868 15.7791C12.0687 15.4717 12.1688 15.169 12.3664 14.9328C12.5641 14.6966 12.8445 14.5448 13.1503 14.5085L13.2917 14.5H14.5Z" fill="#FF6B5B"/>
</svg>
