<svg width="29" height="29" viewBox="0 0 29 29" fill="none" xmlns="http://www.w3.org/2000/svg">
<path d="M19.3333 2.41666C19.6293 2.4167 19.9149 2.52535 20.1361 2.72202C20.3573 2.91869 20.4986 3.18969 20.5332 3.48361L20.5417 3.62499V4.83332H21.75C22.6746 4.83327 23.5643 5.18655 24.2371 5.82087C24.9098 6.4552 25.3147 7.32262 25.369 8.24566L25.375 8.45832V22.9583C25.3751 23.883 25.0218 24.7727 24.3874 25.4454C23.7531 26.1181 22.8857 26.523 21.9627 26.5773L21.75 26.5833H7.25C6.32537 26.5834 5.43567 26.2301 4.76293 25.5958C4.0902 24.9614 3.68529 24.094 3.63104 23.171L3.625 22.9583V8.45832C3.62495 7.53369 3.97823 6.64399 4.61255 5.97126C5.24688 5.29852 6.1143 4.89361 7.03733 4.83936L7.25 4.83332H8.45833V3.62499C8.45867 3.31701 8.5766 3.02078 8.78802 2.79684C8.99945 2.57289 9.2884 2.43812 9.59585 2.42007C9.9033 2.40202 10.206 2.50205 10.4422 2.69973C10.6784 2.8974 10.8302 3.17779 10.8665 3.48361L10.875 3.62499V4.83332H18.125V3.62499C18.125 3.30452 18.2523 2.99718 18.4789 2.77057C18.7055 2.54396 19.0129 2.41666 19.3333 2.41666ZM22.9583 10.875H6.04167V22.5052C6.04167 23.3571 6.50808 24.0591 7.10862 24.1558L7.25 24.1667H21.75C22.3699 24.1667 22.881 23.5262 22.9499 22.6985L22.9583 22.5052V10.875Z" fill="#D9D9D9"/>
<path d="M14.5 14.5C14.7959 14.5 15.0816 14.6087 15.3028 14.8054C15.5239 15.002 15.6652 15.273 15.6999 15.567L15.7083 15.7083V19.3333C15.708 19.6413 15.59 19.9375 15.3786 20.1615C15.1672 20.3854 14.8782 20.5202 14.5708 20.5382C14.2633 20.5563 13.9606 20.4563 13.7244 20.2586C13.4883 20.0609 13.3365 19.7805 13.3001 19.4747L13.2917 19.3333V16.9167C12.9837 16.9163 12.6874 16.7984 12.4635 16.587C12.2395 16.3756 12.1048 16.0866 12.0867 15.7791C12.0687 15.4717 12.1687 15.169 12.3664 14.9328C12.5641 14.6966 12.8445 14.5448 13.1503 14.5085L13.2917 14.5H14.5Z" fill="#D9D9D9"/>
</svg>
