<svg width="26" height="26" viewBox="0 0 26 26" fill="none" xmlns="http://www.w3.org/2000/svg">
<path d="M12.4572 10.2917L12.4583 22.75H6.77083C5.87169 22.7501 5.0066 22.4061 4.35294 21.7887C3.69928 21.1713 3.3066 20.3273 3.25542 19.4296L3.25 19.2313V10.2906L12.4572 10.2917ZM14.0822 16.7906H23.2917V19.2313C23.2917 20.1651 22.9207 21.0606 22.2604 21.7209C21.6002 22.3812 20.7046 22.7522 19.7708 22.7522L14.0833 22.75L14.0822 16.7906ZM19.7719 2.70724C20.6711 2.70717 21.5362 3.0511 22.1898 3.6685C22.8435 4.28589 23.2362 5.12998 23.2873 6.02766L23.2927 6.22699L23.2917 15.1656H14.0822L14.0833 2.70616L19.7719 2.70724ZM12.4583 2.70508L12.4572 8.66666H3.25V6.22699C3.25 5.29321 3.62094 4.39767 4.28123 3.73739C4.94151 3.07711 5.83705 2.70616 6.77083 2.70616L12.4583 2.70508Z" fill="#D9D9D9"/>
</svg>
