<svg width="28" height="27" viewBox="0 0 28 27" fill="none" xmlns="http://www.w3.org/2000/svg">
<path d="M13.5916 10.6707L13.5928 23.5879H7.69579C6.76354 23.5879 5.86658 23.2313 5.18885 22.5912C4.51112 21.9511 4.10397 21.0759 4.0509 20.1452L4.04529 19.9396V10.6696L13.5916 10.6707ZM15.2765 17.409H24.8251V19.9396C24.8251 20.9078 24.4405 21.8363 23.7559 22.5209C23.0713 23.2055 22.1428 23.5901 21.1746 23.5901L15.2776 23.5879L15.2765 17.409ZM21.1757 2.80693C22.108 2.80686 23.0049 3.16345 23.6827 3.80359C24.3604 4.44373 24.7675 5.3189 24.8206 6.24964L24.8262 6.45632L24.8251 15.7241H15.2765L15.2776 2.80581L21.1757 2.80693ZM13.5928 2.80469L13.5916 8.98584H4.04529V6.45632C4.04529 5.48814 4.42989 4.55962 5.1145 3.87502C5.7991 3.19042 6.72762 2.80581 7.69579 2.80581L13.5928 2.80469Z" fill="#FF6B5B"/>
</svg>
