<svg width="26" height="26" viewBox="0 0 26 26" fill="none" xmlns="http://www.w3.org/2000/svg">
<path d="M3.13733 7.3204V5.22886H5.22887V4.18309C5.22887 3.62838 5.44922 3.09639 5.84146 2.70415C6.2337 2.31191 6.76569 2.09155 7.3204 2.09155H13.595V9.41193L16.2094 7.84328L18.8239 9.41193V2.09155H19.8696C20.9677 2.09155 21.9612 3.08503 21.9612 4.18309V20.9154C21.9612 22.0134 20.9677 23.0069 19.8696 23.0069H7.3204C6.22235 23.0069 5.22887 22.0134 5.22887 20.9154V19.8696H3.13733V17.7781H5.22887V13.595H3.13733V11.5035H5.22887V7.3204H3.13733ZM7.3204 11.5035H5.22887V13.595H7.3204V11.5035ZM7.3204 7.3204V5.22886H5.22887V7.3204H7.3204ZM7.3204 19.8696V17.7781H5.22887V19.8696H7.3204Z" fill="#FF6B5B"/>
</svg>
