<svg width="25" height="25" viewBox="0 0 25 25" fill="none" xmlns="http://www.w3.org/2000/svg">
<path d="M3.125 7.29168V5.20834H5.20833V4.16668C5.20833 3.61414 5.42783 3.08424 5.81853 2.69354C6.20923 2.30284 6.73913 2.08334 7.29167 2.08334H13.5417V9.37501L16.1458 7.81251L18.75 9.37501V2.08334H19.7917C20.8854 2.08334 21.875 3.07293 21.875 4.16668V20.8333C21.875 21.9271 20.8854 22.9167 19.7917 22.9167H7.29167C6.19792 22.9167 5.20833 21.9271 5.20833 20.8333V19.7917H3.125V17.7083H5.20833V13.5417H3.125V11.4583H5.20833V7.29168H3.125ZM7.29167 11.4583H5.20833V13.5417H7.29167V11.4583ZM7.29167 7.29168V5.20834H5.20833V7.29168H7.29167ZM7.29167 19.7917V17.7083H5.20833V19.7917H7.29167Z" fill="#D9D9D9"/>
</svg>
