<svg width="24" height="23" viewBox="0 0 24 23" fill="none" xmlns="http://www.w3.org/2000/svg">
<path fill-rule="evenodd" clip-rule="evenodd" d="M1.74054 17.6472V10.8731C1.74054 10.1963 1.74054 9.85767 1.8246 9.54272C1.89909 9.26362 2.02231 8.99949 2.1878 8.76082C2.37454 8.49149 2.63407 8.26815 3.15435 7.82245L9.36653 2.50066C10.331 1.67441 10.8133 1.26126 11.3564 1.104C11.8354 0.965333 12.3459 0.965333 12.8248 1.104C13.3684 1.26138 13.8513 1.67492 14.8173 2.50241L21.0274 7.82245C21.5477 8.26814 21.8073 8.49149 21.9941 8.76082C22.1596 8.99949 22.2818 9.26362 22.3563 9.54272C22.4404 9.85767 22.441 10.1963 22.441 10.8731V17.6516C22.441 19.0676 22.441 19.7764 22.1592 20.3178C21.9111 20.7945 21.5143 21.1817 21.0274 21.4246C20.4744 21.7004 19.7512 21.7004 18.3049 21.7004H15.541V17.1003C15.541 15.1949 13.9963 13.6503 12.0909 13.6503C10.1855 13.6503 8.64081 15.1949 8.64081 17.1003V21.7004H5.87663C4.43029 21.7004 3.70605 21.7004 3.15308 21.4246C2.6662 21.1817 2.27064 20.7945 2.02257 20.3178C1.74054 19.7759 1.74054 19.066 1.74054 17.6472Z" fill="#D9D9D9"/>
<path d="M1.8246 9.54272L2.79078 9.80059H2.79078L1.8246 9.54272ZM2.1878 8.76082L3.00959 9.33061H3.00959L2.1878 8.76082ZM3.15435 7.82245L3.80493 8.58188L3.15435 7.82245ZM9.36653 2.50066L8.71595 1.74122L8.71595 1.74122L9.36653 2.50066ZM11.3564 1.104L11.0783 0.143453L11.3564 1.104ZM12.8248 1.104L13.1029 0.143453L13.1029 0.143453L12.8248 1.104ZM14.8173 2.50241L14.1667 3.26185V3.26185L14.8173 2.50241ZM21.0274 7.82245L20.3768 8.58188L21.0274 7.82245ZM21.9941 8.76082L22.8159 8.19102L22.8159 8.19102L21.9941 8.76082ZM22.3563 9.54272L21.3901 9.80059L21.3901 9.80059L22.3563 9.54272ZM22.1592 20.3178L23.0463 20.7795L23.0463 20.7795L22.1592 20.3178ZM21.0274 21.4246L21.4738 22.3194H21.4738L21.0274 21.4246ZM15.541 21.7004H14.541C14.541 22.2527 14.9887 22.7004 15.541 22.7004V21.7004ZM8.64081 21.7004V22.7004C9.19309 22.7004 9.64081 22.2527 9.64081 21.7004H8.64081ZM3.15308 21.4246L3.59947 20.5298H3.59947L3.15308 21.4246ZM2.02257 20.3178L1.1355 20.7795L1.13551 20.7795L2.02257 20.3178ZM0.74054 10.8731V17.6472H2.74054V10.8731H0.74054ZM0.858418 9.28485C0.732642 9.75611 0.74054 10.2496 0.74054 10.8731H2.74054C2.74054 10.1429 2.74844 9.95923 2.79078 9.80059L0.858418 9.28485ZM1.36601 8.19102C1.1361 8.52261 0.963282 8.89195 0.858418 9.28485L2.79078 9.80059C2.8349 9.63528 2.90852 9.47637 3.00959 9.33061L1.36601 8.19102ZM2.50376 7.06301C2.0222 7.47555 1.64308 7.79141 1.36601 8.19102L3.00959 9.33061C3.106 9.19156 3.24595 9.06074 3.80493 8.58188L2.50376 7.06301ZM8.71595 1.74122L2.50376 7.06301L3.80493 8.58188L10.0171 3.26009L8.71595 1.74122ZM11.0783 0.143453C10.6502 0.267396 10.2862 0.482906 9.92879 0.744565C9.58174 0.998628 9.18663 1.338 8.71595 1.74122L10.0171 3.26009C10.5109 2.83706 10.8392 2.55674 11.1102 2.35835C11.3708 2.16756 11.5195 2.09786 11.6345 2.06455L11.0783 0.143453ZM13.1029 0.143453C12.4423 -0.0478176 11.7389 -0.0478177 11.0783 0.143453L11.6345 2.06455C11.9318 1.97848 12.2494 1.97848 12.5467 2.06455L13.1029 0.143453ZM15.4679 1.74298C14.9964 1.33909 14.6008 0.999324 14.2533 0.744983C13.8955 0.48307 13.5312 0.267449 13.1029 0.143453L12.5467 2.06455C12.662 2.09793 12.811 2.16777 13.072 2.35884C13.3434 2.55749 13.6722 2.83824 14.1667 3.26185L15.4679 1.74298ZM21.678 7.06301L15.4679 1.74298L14.1667 3.26185L20.3768 8.58188L21.678 7.06301ZM22.8159 8.19102C22.5388 7.79138 22.1594 7.47544 21.678 7.06301L20.3768 8.58188C20.9359 9.06085 21.0759 9.19159 21.1723 9.33061L22.8159 8.19102ZM23.3225 9.28485C23.2182 8.89388 23.0469 8.52427 22.8159 8.19102L21.1723 9.33061C21.2722 9.47471 21.3455 9.63335 21.3901 9.80059L23.3225 9.28485ZM23.441 10.8731C23.441 10.2481 23.4482 9.75574 23.3225 9.28485L21.3901 9.80059C21.4326 9.95959 21.441 10.1444 21.441 10.8731H23.441ZM23.441 17.6516V10.8731H21.441V17.6516H23.441ZM23.0463 20.7795C23.2737 20.3425 23.3618 19.8813 23.4023 19.3959C23.4418 18.9228 23.441 18.3428 23.441 17.6516H21.441C21.441 18.3765 21.4402 18.8589 21.4092 19.2295C21.3793 19.5879 21.3265 19.7518 21.2722 19.8562L23.0463 20.7795ZM21.4738 22.3194C22.1459 21.9841 22.6988 21.4471 23.0463 20.7795L21.2722 19.8562C21.1235 20.1419 20.8826 20.3793 20.581 20.5298L21.4738 22.3194ZM18.3049 22.7004C19.0119 22.7004 19.6011 22.7012 20.0809 22.6628C20.572 22.6235 21.0348 22.5384 21.4738 22.3194L20.581 20.5298C20.467 20.5866 20.2918 20.6395 19.9213 20.6691C19.5398 20.6997 19.0442 20.7004 18.3049 20.7004V22.7004ZM15.541 22.7004H18.3049V20.7004H15.541V22.7004ZM14.541 17.1003V21.7004H16.541V17.1003H14.541ZM12.0909 14.6503C13.444 14.6503 14.541 15.7472 14.541 17.1003H16.541C16.541 14.6426 14.5486 12.6503 12.0909 12.6503V14.6503ZM9.64081 17.1003C9.64081 15.7472 10.7377 14.6503 12.0909 14.6503V12.6503C9.63317 12.6503 7.64081 14.6426 7.64081 17.1003H9.64081ZM9.64081 21.7004V17.1003H7.64081V21.7004H9.64081ZM5.87663 22.7004H8.64081V20.7004H5.87663V22.7004ZM2.70669 22.3194C3.14577 22.5385 3.60897 22.6235 4.10009 22.6628C4.5802 22.7012 5.16961 22.7004 5.87663 22.7004V20.7004C5.13731 20.7004 4.64144 20.6997 4.2596 20.6691C3.88877 20.6395 3.71336 20.5866 3.59947 20.5298L2.70669 22.3194ZM1.13551 20.7795C1.48239 21.446 2.03348 21.9836 2.70669 22.3194L3.59947 20.5298C3.29893 20.3798 3.05889 20.143 2.90963 19.8562L1.13551 20.7795ZM0.74054 17.6472C0.74054 18.3398 0.739729 18.9207 0.779255 19.3945C0.819802 19.8805 0.907905 20.3421 1.1355 20.7795L2.90963 19.8562C2.8552 19.7516 2.80229 19.5873 2.77233 19.2282C2.74135 18.8569 2.74054 18.3734 2.74054 17.6472H0.74054Z" fill="#D9D9D9"/>
</svg>
