<svg width="24" height="23" viewBox="0 0 24 23" fill="none" xmlns="http://www.w3.org/2000/svg">
<path fill-rule="evenodd" clip-rule="evenodd" d="M1.74048 17.6472V10.8731C1.74048 10.1963 1.74048 9.85767 1.82454 9.54272C1.89903 9.26362 2.02225 8.99949 2.18774 8.76082C2.37448 8.49149 2.63401 8.26815 3.15428 7.82245L9.36647 2.50066C10.331 1.67441 10.8132 1.26126 11.3564 1.104C11.8353 0.965333 12.3458 0.965333 12.8248 1.104C13.3683 1.26138 13.8513 1.67492 14.8172 2.50241L21.0274 7.82245C21.5476 8.26814 21.8073 8.49149 21.994 8.76082C22.1595 8.99949 22.2818 9.26362 22.3563 9.54272C22.4403 9.85767 22.4409 10.1963 22.4409 10.8731V17.6516C22.4409 19.0676 22.4409 19.7764 22.1592 20.3178C21.9111 20.7945 21.5142 21.1817 21.0273 21.4246C20.4744 21.7004 19.7512 21.7004 18.3048 21.7004H15.5409V17.1003C15.5409 15.1949 13.9962 13.6503 12.0908 13.6503C10.1854 13.6503 8.64074 15.1949 8.64074 17.1003V21.7004H5.87657C4.43023 21.7004 3.70599 21.7004 3.15302 21.4246C2.66614 21.1817 2.27058 20.7945 2.02251 20.3178C1.74048 19.7759 1.74048 19.066 1.74048 17.6472Z" fill="#FF6B5B"/>
<path d="M1.82454 9.54272L2.79072 9.80059H2.79072L1.82454 9.54272ZM2.18774 8.76082L3.00953 9.33061H3.00953L2.18774 8.76082ZM3.15428 7.82245L3.80487 8.58188L3.15428 7.82245ZM9.36647 2.50066L8.71589 1.74122L8.71589 1.74122L9.36647 2.50066ZM11.3564 1.104L11.0783 0.143453L11.3564 1.104ZM12.8248 1.104L13.1029 0.143453L13.1029 0.143453L12.8248 1.104ZM14.8172 2.50241L14.1666 3.26185V3.26185L14.8172 2.50241ZM21.0274 7.82245L20.3768 8.58188L21.0274 7.82245ZM21.994 8.76082L22.8158 8.19102L22.8158 8.19102L21.994 8.76082ZM22.3563 9.54272L21.3901 9.80059L21.3901 9.80059L22.3563 9.54272ZM22.1592 20.3178L23.0462 20.7795L23.0462 20.7795L22.1592 20.3178ZM21.0273 21.4246L21.4737 22.3194H21.4737L21.0273 21.4246ZM15.5409 21.7004H14.5409C14.5409 22.2527 14.9886 22.7004 15.5409 22.7004V21.7004ZM8.64074 21.7004V22.7004C9.19303 22.7004 9.64074 22.2527 9.64074 21.7004H8.64074ZM3.15302 21.4246L3.59941 20.5298H3.59941L3.15302 21.4246ZM2.02251 20.3178L1.13544 20.7795L1.13544 20.7795L2.02251 20.3178ZM0.740479 10.8731V17.6472H2.74048V10.8731H0.740479ZM0.858357 9.28485C0.732581 9.75611 0.740479 10.2496 0.740479 10.8731H2.74048C2.74048 10.1429 2.74838 9.95923 2.79072 9.80059L0.858357 9.28485ZM1.36595 8.19102C1.13604 8.52261 0.963221 8.89195 0.858357 9.28485L2.79072 9.80059C2.83484 9.63528 2.90846 9.47637 3.00953 9.33061L1.36595 8.19102ZM2.5037 7.06301C2.02214 7.47555 1.64302 7.79141 1.36595 8.19102L3.00953 9.33061C3.10594 9.19156 3.24589 9.06074 3.80487 8.58188L2.5037 7.06301ZM8.71589 1.74122L2.5037 7.06301L3.80487 8.58188L10.0171 3.26009L8.71589 1.74122ZM11.0783 0.143453C10.6502 0.267396 10.2862 0.482906 9.92873 0.744565C9.58168 0.998628 9.18657 1.338 8.71589 1.74122L10.0171 3.26009C10.5109 2.83706 10.8391 2.55674 11.1101 2.35835C11.3708 2.16756 11.5194 2.09786 11.6345 2.06455L11.0783 0.143453ZM13.1029 0.143453C12.4423 -0.0478176 11.7389 -0.0478177 11.0783 0.143453L11.6345 2.06455C11.9318 1.97848 12.2494 1.97848 12.5467 2.06455L13.1029 0.143453ZM15.4678 1.74298C14.9964 1.33909 14.6007 0.999324 14.2532 0.744983C13.8954 0.48307 13.5311 0.267449 13.1029 0.143453L12.5467 2.06455C12.6619 2.09793 12.8109 2.16777 13.0719 2.35884C13.3433 2.55749 13.6722 2.83824 14.1666 3.26185L15.4678 1.74298ZM21.6779 7.06301L15.4678 1.74298L14.1666 3.26185L20.3768 8.58188L21.6779 7.06301ZM22.8158 8.19102C22.5387 7.79138 22.1594 7.47544 21.6779 7.06301L20.3768 8.58188C20.9359 9.06085 21.0758 9.19159 21.1722 9.33061L22.8158 8.19102ZM23.3224 9.28485C23.2181 8.89388 23.0469 8.52427 22.8158 8.19102L21.1722 9.33061C21.2721 9.47471 21.3454 9.63335 21.3901 9.80059L23.3224 9.28485ZM23.4409 10.8731C23.4409 10.2481 23.4481 9.75574 23.3224 9.28485L21.3901 9.80059C21.4325 9.95959 21.4409 10.1444 21.4409 10.8731H23.4409ZM23.4409 17.6516V10.8731H21.4409V17.6516H23.4409ZM23.0462 20.7795C23.2737 20.3425 23.3617 19.8813 23.4022 19.3959C23.4417 18.9228 23.4409 18.3428 23.4409 17.6516H21.4409C21.4409 18.3765 21.4401 18.8589 21.4092 19.2295C21.3792 19.5879 21.3264 19.7518 21.2721 19.8562L23.0462 20.7795ZM21.4737 22.3194C22.1458 21.9841 22.6988 21.4471 23.0462 20.7795L21.2721 19.8562C21.1234 20.1419 20.8826 20.3793 20.5809 20.5298L21.4737 22.3194ZM18.3048 22.7004C19.0118 22.7004 19.601 22.7012 20.0809 22.6628C20.5719 22.6235 21.0347 22.5384 21.4737 22.3194L20.5809 20.5298C20.4669 20.5866 20.2917 20.6395 19.9213 20.6691C19.5397 20.6997 19.0442 20.7004 18.3048 20.7004V22.7004ZM15.5409 22.7004H18.3048V20.7004H15.5409V22.7004ZM14.5409 17.1003V21.7004H16.5409V17.1003H14.5409ZM12.0908 14.6503C13.444 14.6503 14.5409 15.7472 14.5409 17.1003H16.5409C16.5409 14.6426 14.5485 12.6503 12.0908 12.6503V14.6503ZM9.64074 17.1003C9.64074 15.7472 10.7377 14.6503 12.0908 14.6503V12.6503C9.63311 12.6503 7.64074 14.6426 7.64074 17.1003H9.64074ZM9.64074 21.7004V17.1003H7.64074V21.7004H9.64074ZM5.87657 22.7004H8.64074V20.7004H5.87657V22.7004ZM2.70663 22.3194C3.14571 22.5385 3.60891 22.6235 4.10003 22.6628C4.58014 22.7012 5.16955 22.7004 5.87657 22.7004V20.7004C5.13725 20.7004 4.64138 20.6997 4.25953 20.6691C3.88871 20.6395 3.7133 20.5866 3.59941 20.5298L2.70663 22.3194ZM1.13544 20.7795C1.48233 21.446 2.03342 21.9836 2.70663 22.3194L3.59941 20.5298C3.29886 20.3798 3.05883 20.143 2.90957 19.8562L1.13544 20.7795ZM0.740479 17.6472C0.740479 18.3398 0.739668 18.9207 0.779194 19.3945C0.819741 19.8805 0.907843 20.3421 1.13544 20.7795L2.90957 19.8562C2.85514 19.7516 2.80223 19.5873 2.77227 19.2282C2.74129 18.8569 2.74048 18.3734 2.74048 17.6472H0.740479Z" fill="#FF6B5B"/>
</svg>
