<svg width="21" height="21" viewBox="0 0 21 21" fill="none" xmlns="http://www.w3.org/2000/svg">
<path d="M1.70422 20.4506C1.70422 20.4506 0 20.4506 0 18.7464C0 17.0422 1.70422 11.9295 10.2253 11.9295C18.7464 11.9295 20.4506 17.0422 20.4506 18.7464C20.4506 20.4506 18.7464 20.4506 18.7464 20.4506H1.70422ZM15.3379 5.11265C15.3379 6.4686 14.7993 7.76902 13.8405 8.72783C12.8817 9.68664 11.5812 10.2253 10.2253 10.2253C8.86933 10.2253 7.56891 9.68664 6.6101 8.72783C5.6513 7.76902 5.11265 6.4686 5.11265 5.11265C5.11265 3.75669 5.6513 2.45627 6.6101 1.49746C7.56891 0.538652 8.86933 0 10.2253 0C11.5812 0 12.8817 0.538652 13.8405 1.49746C14.7993 2.45627 15.3379 3.75669 15.3379 5.11265Z" fill="#FF6B5B"/>
</svg>
